<svg xmlns="http://www.w3.org/2000/svg" width="298" height="149" viewBox="0 0 298 149" fill="none"><g clip-path="url(#clip0_47_2)"><g clip-path="url(#clip1_47_2)"><g clip-path="url(#clip2_47_2)"><path d="M244.239 0H148.95H53.6673L21.9062 84.6979L148.95 148.22L276 84.6979L244.239 0Z" fill="url(#paint0_linear_47_2)"></path><path d="M232.825 16.4696L255.373 76.5978L148.95 129.809L42.5335 76.5978L65.0808 16.4696H232.825ZM234.455 14.1191H63.4511L39.5859 77.7596L148.95 132.444L258.315 77.7596L234.45 14.1191H234.455Z" fill="#FA66C3"></path><path d="M297.906 100.99H218.383V146.09H297.906L277.726 123.538L297.906 100.99Z" fill="#98EB24"></path><path d="M0 100.99H79.5182V146.09H0L20.1754 123.538L0 100.99Z" fill="#98EB24"></path><path d="M264.673 119.977L217.195 146.09V100.99L264.673 119.977Z" fill="#FA66C3"></path><path d="M33.2344 119.977L80.7065 146.09V100.99L33.2344 119.977Z" fill="#FA66C3"></path><path d="M264.673 74.877H33.2344V119.977H264.673V74.877Z" fill="#95FF00"></path><path d="M92.8268 32.982H81.6445V25.9844H101.836V32.6808L92.5686 66.7762H83.5056L92.8214 32.9874L92.8268 32.982Z" fill="white"></path><path d="M119.773 25.9844H130.499C141.627 25.9844 144.698 29.7118 144.698 39.0276V53.7329C144.698 63.0488 141.627 66.7762 130.499 66.7762H119.773V25.9844ZM130.649 59.8754C134.075 59.8754 134.425 58.719 134.425 55.8952V36.7578C134.425 33.9878 134.07 32.8798 130.649 32.8798H129.74V59.87H130.649V59.8754Z" fill="white"></path><path d="M150.141 25.9844H160.113V66.7762H150.141V25.9844Z" fill="white"></path><path d="M171.592 25.9844H183.227L190.531 66.7762H181.414L180.155 58.6168H174.868L173.609 66.7762H164.191L171.592 25.9844ZM179.3 52.8777L177.487 37.6668L175.675 52.8777H179.3Z" fill="white"></path><path d="M193.349 54.1846L201.81 53.0766C201.858 58.6166 203.117 59.8752 204.73 59.8752C206.344 59.8752 206.392 58.3638 206.392 57.4602C206.392 54.1362 204.73 52.1246 201.858 49.7042L199.287 47.5366C196.065 44.815 193.344 41.5931 193.344 36.4081C193.344 29.2599 197.975 25.3818 205.327 25.3818C214.697 25.3818 215.402 33.1863 215.45 37.2687L206.79 38.1239C206.79 34.6009 206.742 32.5839 204.978 32.5839C203.617 32.5839 203.117 34.4449 203.117 35.4023C203.117 38.5757 204.929 40.2377 207.447 42.4537L209.813 44.5191C213.438 47.6442 216.257 51.2156 216.257 57.0084C216.257 62.8012 212.078 67.4323 205.327 67.4323C197.421 67.4323 193.591 63.8555 193.344 54.19L193.349 54.1846Z" fill="white"></path><path d="M60.043 83.7197H66.9223C74.0598 83.7197 76.0284 86.1079 76.0284 92.0836V101.512C76.0284 107.483 74.0598 109.876 66.9223 109.876H60.043V83.7251V83.7197ZM67.0191 105.45C69.2136 105.45 69.4395 104.707 69.4395 102.9V90.6313C69.4395 88.8564 69.2136 88.1464 67.0191 88.1464H66.4382V105.45H67.0191Z" fill="#121A44"></path><path d="M79.5156 83.7197H91.7521V88.0119H85.9055V93.8585H90.2622V98.3121H85.9055V105.611H91.7844V109.871H79.5156V83.7197Z" fill="#121A44"></path><path d="M102.535 101.189V92.4059C102.535 86.9196 104.536 83.332 110.641 83.332C116.746 83.332 118.521 86.6238 118.521 90.9859V92.8577H112.222V90.3727C112.222 89.2109 112.19 87.7587 110.705 87.7587C109.221 87.7587 109.092 89.2432 109.092 90.3727V103.19C109.092 104.352 109.414 105.836 110.899 105.836C112.383 105.836 112.771 104.352 112.771 103.19V99.7693H110.673V96.1225H118.521V109.876H114.261L113.938 107.972C113.26 109.295 112.066 110.295 109.839 110.295C104.283 110.295 102.541 106.519 102.541 101.189H102.535Z" fill="#121A44"></path><path d="M125.627 83.7197H133.087L137.766 109.871H131.925L131.118 104.643H127.73L126.923 109.871H120.883L125.627 83.7197ZM130.564 100.964L129.403 91.2122L128.241 100.964H130.564Z" fill="#121A44"></path><path d="M140.41 83.7197H148.193C153.453 83.7197 157.17 84.9783 157.17 90.6313C157.17 93.8908 156.621 95.9885 153.975 97.3493L157.525 109.876H150.839L148.129 98.3174H146.805V109.876H140.416V83.7251L140.41 83.7197ZM148.484 94.7944C150.71 94.7944 151.259 93.3099 151.259 91.309C151.259 89.3082 150.646 87.9527 148.774 87.9527H146.805V94.7998H148.484V94.7944Z" fill="#121A44"></path><path d="M164.115 83.7197H171.575L176.255 109.871H170.414L169.607 104.643H166.218L165.411 109.871H159.371L164.115 83.7197ZM169.053 100.964L167.891 91.2122L166.729 100.964H169.053Z" fill="#121A44"></path><path d="M178.902 83.7197H183.42L188.197 94.9235V83.7197H193.489V109.871H189.1L184.389 97.5698V109.871H178.902V83.7197Z" fill="#121A44"></path><path d="M199.539 88.4686H195.73V83.7246H209.742V88.4686H205.966V109.876H199.539V88.4686Z" fill="#121A44"></path><path d="M211.969 83.7197H218.359V109.871H211.969V83.7197Z" fill="#121A44"></path><path d="M225.721 83.7197H233.181L237.86 109.871H232.019L231.212 104.643H227.824L227.017 109.871H220.977L225.721 83.7197ZM230.658 100.964L229.496 91.2122L228.335 100.964H230.658Z" fill="#121A44"></path></g></g></g><defs><linearGradient id="paint0_linear_47_2" x1="21.9062" y1="74.1127" x2="276" y2="74.1127" gradientUnits="userSpaceOnUse"><stop stop-color="#121A44"></stop><stop offset="1" stop-color="#15255C"></stop></linearGradient><clipPath id="clip0_47_2"><rect width="297.91" height="148.22" fill="white"></rect></clipPath><clipPath id="clip1_47_2"><rect width="297.91" height="148.22" fill="white"></rect></clipPath><clipPath id="clip2_47_2"><rect width="297.908" height="148.22" fill="white"></rect></clipPath></defs></svg>